<?xml version="1.0" standalone="no"?>
<!DOCTYPE svg PUBLIC "-//W3C//DTD SVG 1.1//EN" "http://www.w3.org/Graphics/SVG/1.1/DTD/svg11.dtd" >
<svg xmlns="http://www.w3.org/2000/svg">
<metadata></metadata>
<defs>
<font id="coresansn95blackuploaded_file" horiz-adv-x="1024" >
<font-face units-per-em="2048" ascent="1608" descent="-440" />
<missing-glyph horiz-adv-x="614" />
<glyph unicode="&#xfb01;" horiz-adv-x="1730" d="M20 770v291h195v31q0 98 26.5 173.5t85 126t152.5 77t228 26.5q92 0 173 -10t140 -27l-29 -260q-29 10 -68.5 16.5t-74.5 6.5q-113 0 -113 -97v-63h260v-291h-260v-770h-520v770h-195zM1090 1319q0 94 67.5 135t210.5 41t211 -41t68 -135t-68 -135t-211 -41t-210.5 41 t-67.5 135zM1108 0v1061h520v-1061h-520z" />
<glyph unicode="&#xfb02;" horiz-adv-x="1730" d="M20 770v291h195v31q0 98 26.5 173.5t85 126t152.5 77t228 26.5q92 0 173 -10t140 -27l-29 -260q-29 10 -68.5 16.5t-74.5 6.5q-113 0 -113 -97v-63h260v-291h-260v-770h-520v770h-195zM1108 0v1495h520v-1495h-520z" />
<glyph unicode="&#xfb03;" horiz-adv-x="2609" d="M20 770v291h195v31q0 197 121 300t395 103q80 0 161 -10t144 -29l-28 -258q-29 10 -70 16.5t-82 6.5q-121 0 -121 -97v-63h359v31q0 98 26.5 173.5t85 126t152.5 77t227 26.5q92 0 173 -10t140 -27l-28 -260q-29 10 -69 16.5t-75 6.5q-113 0 -112 -97v-63h260v-291h-260 v-770h-520v770h-359v-770h-520v770h-195zM1968 1319q0 94 67.5 135t211.5 41q143 0 210.5 -41t67.5 -135t-67.5 -135t-210.5 -41t-211 41t-68 135zM1987 0v1061h520v-1061h-520z" />
<glyph unicode="&#xfb04;" horiz-adv-x="2609" d="M20 770v291h195v31q0 197 121 300t395 103q80 0 161 -10t144 -29l-28 -258q-29 10 -70 16.5t-82 6.5q-121 0 -121 -97v-63h359v31q0 98 26.5 173.5t85 126t152.5 77t227 26.5q92 0 173 -10t140 -27l-28 -260q-29 10 -69 16.5t-75 6.5q-113 0 -112 -97v-63h260v-291h-260 v-770h-520v770h-359v-770h-520v770h-195zM1987 0v1495h520v-1495h-520z" />
<glyph unicode="&#xd;" horiz-adv-x="485" />
<glyph horiz-adv-x="0" />
<glyph horiz-adv-x="0" />
<glyph unicode=" "  horiz-adv-x="614" />
<glyph unicode="&#x09;" horiz-adv-x="614" />
<glyph unicode="&#xa0;" horiz-adv-x="614" />
<glyph unicode="!" horiz-adv-x="808" d="M133 174q0 98 59.5 148.5t210.5 50.5q152 0 211.5 -50.5t59.5 -148.5t-59.5 -148.5t-211.5 -50.5t-211 50.5t-59 148.5zM135 1133v301h541v-301l-47 -650h-447z" />
<glyph unicode="&#x22;" horiz-adv-x="1361" d="M164 1434h467v-84l-66 -598h-364zM731 1434h467v-84l-68 -598h-362z" />
<glyph unicode="#" horiz-adv-x="1669" d="M41 262v340h242l41 238h-185v340h242l43 254h432l-43 -254h197l43 254h432l-43 -254h186v-340h-244l-38 -238h184v-340h-242l-43 -262h-434l43 262h-195l-43 -262h-434l43 262h-184zM717 602h194l41 238h-196z" />
<glyph unicode="$" horiz-adv-x="1390" d="M92 983q0 182 113.5 302t339.5 157v231h286v-217q113 -6 216.5 -24.5t183.5 -51.5l-33 -379q-86 41 -179 63.5t-190 22.5q-109 0 -146.5 -17t-37.5 -52q0 -16 10.5 -30.5t40 -31t82.5 -35t140 -44.5q391 -121 391 -445q0 -184 -114 -301t-353 -145v-222h-287v218 q-127 10 -243.5 42.5t-215.5 92.5l35 395q104 -88 222 -129t231 -41q102 0 137 18.5t35 49.5q0 16 -10.5 30.5t-40 30.5t-83 34.5t-139.5 45.5q-199 61 -295 164.5t-96 267.5z" />
<glyph unicode="%" horiz-adv-x="2140" d="M82 1014q0 92 27.5 172t82 138t136.5 91t190 33q109 0 191 -33t136 -91t81.5 -138t27.5 -172t-27.5 -172t-81.5 -138.5t-136 -91t-191 -32.5t-190.5 32.5t-136 91t-82 138.5t-27.5 172zM440 1014q0 -170 78 -170t78 170t-78 170t-78 -170zM553 0l817 1434h217l-817 -1434 h-217zM1186 420q0 92 27.5 172t82 138t136 91t190.5 33t190.5 -33t136 -91t82 -138t27.5 -172t-27.5 -172t-82 -138.5t-136 -91t-190.5 -32.5t-190.5 32.5t-136 91t-82 138.5t-27.5 172zM1544 420q0 -170 78 -170t78 170t-78 170t-78 -170z" />
<glyph unicode="&#x26;" horiz-adv-x="1806" d="M82 412q0 127 74.5 225t205.5 145q-154 135 -153 287q0 82 33.5 153.5t101.5 124t171 82t243 29.5q125 0 227 -26.5t175 -75.5t113 -119t40 -158q0 -123 -81 -212t-212 -142l170 -156q27 41 42 100.5t19 125.5h451q-8 -158 -69.5 -288t-137.5 -208l332 -299h-610l-70 61 q-72 -41 -181.5 -63.5t-236.5 -22.5q-141 0 -260 25t-205 78t-134 136t-48 198zM573 406q0 -55 45.5 -87t124.5 -32q39 0 73 6t56 18l-241 219q-27 -23 -42.5 -54t-15.5 -70zM680 1079q0 -41 23.5 -75.5t58.5 -61.5q41 14 68.5 49t27.5 82q0 45 -24.5 69.5t-65.5 24.5 t-64.5 -24.5t-23.5 -63.5z" />
<glyph unicode="'" horiz-adv-x="774" d="M154 1434h467v-84l-66 -598h-365z" />
<glyph unicode="(" horiz-adv-x="935" d="M164 635q0 252 82 471t233 430h416q-143 -217 -222 -444.5t-79 -456.5t79 -456.5t222 -444.5h-416q-152 211 -233.5 430t-81.5 471z" />
<glyph unicode=")" horiz-adv-x="935" d="M41 -266q143 217 222 444.5t79 456.5t-79 456.5t-222 444.5h416q152 -211 233.5 -430t81.5 -471t-82 -471t-233 -430h-416z" />
<glyph unicode="*" horiz-adv-x="1138" d="M82 596l246 86l-246 84l170 295l197 -172l-50 256h340l-51 -256l199 172l170 -295l-246 -84l246 -86l-170 -295l-199 172l51 -256h-340l50 254l-197 -170z" />
<glyph unicode="+" horiz-adv-x="1220" d="M82 526v308h336v372h385v-372h336v-308h-336v-372h-385v372h-336z" />
<glyph unicode="," horiz-adv-x="696" d="M127 199q0 223 221 223t221 -223q0 -211 -83 -348.5t-240 -219.5l-96 146q49 37 85.5 92t47.5 113q-156 27 -156 217z" />
<glyph unicode="-" horiz-adv-x="790" d="M82 516v328h627v-328h-627z" />
<glyph unicode="." horiz-adv-x="696" d="M127 199q0 223 221 223t221 -223t-221 -224q-221 1 -221 224z" />
<glyph unicode="/" horiz-adv-x="1216" d="M-41 -225l870 1757h428l-866 -1757h-432z" />
<glyph unicode="0" horiz-adv-x="1392" d="M29 717q0 170 45 307t131 233.5t210 148.5t281 52q158 0 282 -52t210 -148.5t131 -233.5t45 -307t-45 -307.5t-131 -233.5t-210 -148.5t-282 -52.5t-281.5 52.5t-209.5 148.5t-131 233.5t-45 307.5zM582 717q0 -115 7 -189.5t21.5 -120t36 -62.5t49.5 -17q29 0 50.5 17 t36 62.5t21.5 120t7 189.5t-7 189.5t-21.5 119.5t-36 62.5t-50.5 17.5t-50 -17.5t-35.5 -62.5t-21.5 -119.5t-7 -189.5z" />
<glyph unicode="1" horiz-adv-x="1392" d="M127 1047l508 387h467v-1434h-529v940l-243 -176z" />
<glyph unicode="2" horiz-adv-x="1392" d="M127 0v305q92 68 192.5 152t200.5 182q88 86 134 158.5t46 160.5q0 78 -46 113t-156 35q-88 0 -172 -25.5t-148 -66.5l-20 354q98 43 220 66.5t253 23.5q160 0 275.5 -33.5t190 -95t110.5 -148.5t36 -194q0 -244 -188 -436q-59 -61 -137 -113.5t-150 -89.5h469v-348 h-1110z" />
<glyph unicode="3" horiz-adv-x="1392" d="M106 63l31 367q82 -59 180.5 -91t204.5 -32q211 0 211 117q0 82 -110.5 126t-352.5 44v307q233 0 339 33t106 98q0 51 -45 72.5t-144 21.5q-92 0 -190 -23.5t-174 -64.5l-29 330q106 47 239.5 68.5t272.5 21.5q137 0 249 -26.5t189.5 -79t120.5 -127t43 -168.5 q0 -104 -54 -186.5t-165 -122.5q113 -41 175.5 -128.5t62.5 -193.5q0 -100 -45 -183t-129 -142.5t-205 -92.5t-275 -33q-281 0 -506 88z" />
<glyph unicode="4" horiz-adv-x="1392" d="M37 233v369l516 832h637v-832h145v-369h-145v-233h-508v233h-645zM428 602h254v422z" />
<glyph unicode="5" horiz-adv-x="1392" d="M137 47l33 342q68 -45 143.5 -65.5t153.5 -20.5q254 0 254 172q0 86 -69.5 123t-176.5 37q-74 0 -150.5 -13.5t-136.5 -37.5v850h1039v-328h-531v-197q27 4 62 7.5t65 3.5q98 0 180 -30t142.5 -86t94.5 -138t34 -187q0 -117 -48 -210t-135 -158.5t-211 -100.5t-278 -35 q-125 0 -242.5 15.5t-222.5 56.5z" />
<glyph unicode="6" horiz-adv-x="1392" d="M80 657q0 193 44 341.5t134 251t228.5 155.5t328.5 53q104 0 214 -17.5t204 -54.5l-29 -333q-125 78 -307 77q-127 0 -199.5 -57t-83.5 -192q45 41 111.5 61.5t144.5 20.5q98 0 182.5 -32t147 -93.5t98 -152.5t35.5 -208q0 -115 -43 -207t-121.5 -157.5t-189.5 -101.5 t-246 -36q-307 0 -480 174.5t-173 507.5zM612 575q0 -80 7.5 -132t20.5 -82.5t32.5 -42t44.5 -11.5q43 0 65.5 40t22.5 130q0 98 -24.5 134t-69.5 36q-29 0 -55.5 -10t-43.5 -31v-31z" />
<glyph unicode="7" horiz-adv-x="1392" d="M102 1065v369h1160v-353l-467 -1081h-584l465 1065h-574z" />
<glyph unicode="8" horiz-adv-x="1392" d="M49 416q0 121 59.5 213t194.5 149q-94 43 -142 117t-48 166q0 88 37.5 161.5t112.5 127t183.5 83t249.5 29.5t250 -29.5t183.5 -83t112.5 -127t38 -161.5q0 -92 -48 -166t-142 -117q135 -57 194 -149t59 -213q0 -96 -44 -176t-126.5 -137.5t-202.5 -90t-274 -32.5 t-273.5 32.5t-202.5 90t-127 137t-44 176.5zM582 408q0 -53 32.5 -87t81.5 -34t82 33.5t33 87.5q0 47 -27 101t-88 101q-61 -47 -87.5 -101t-26.5 -101zM596 1047q0 -55 26.5 -93t73.5 -65q47 27 74 64.5t27 93.5q0 47 -28 77.5t-73 30.5t-72.5 -30.5t-27.5 -77.5z" />
<glyph unicode="9" horiz-adv-x="1392" d="M59 956q0 113 43 206t122 158.5t189.5 101.5t245.5 36q307 0 480.5 -174t173.5 -508q0 -385 -178.5 -593t-556.5 -208q-104 0 -214 17.5t-204 54.5l28 334q125 -78 308 -78q127 0 199.5 57.5t82.5 192.5q-45 -41 -111.5 -61.5t-144.5 -20.5q-98 0 -182 32t-146.5 93 t-98.5 152.5t-36 207.5zM588 956q0 -98 24.5 -134t69.5 -36q29 0 55.5 10.5t42.5 30.5v31q0 80 -7 132t-20.5 83t-33 42t-43.5 11q-43 0 -65.5 -39.5t-22.5 -130.5z" />
<glyph unicode=":" horiz-adv-x="696" d="M127 199q0 223 221 223t221 -223t-221 -224q-221 1 -221 224zM127 862q0 223 221 223t221 -223t-221 -223t-221 223z" />
<glyph unicode=";" horiz-adv-x="696" d="M127 199q0 223 221 223t221 -223q0 -211 -83 -348.5t-240 -219.5l-96 146q49 37 85.5 92t47.5 113q-156 27 -156 217zM127 862q0 223 221 223t221 -223t-221 -223t-221 223z" />
<glyph unicode="&#x3c;" horiz-adv-x="1220" d="M82 401v549l1057 277v-385l-686 -166l686 -158v-385z" />
<glyph unicode="=" horiz-adv-x="1220" d="M82 281v307h1057v-307h-1057zM82 772v307h1057v-307h-1057z" />
<glyph unicode="&#x3e;" horiz-adv-x="1220" d="M82 133v385l686 158l-686 166v385l1057 -277v-549z" />
<glyph unicode="?" horiz-adv-x="1226" d="M61 1350q86 51 215.5 79.5t258.5 28.5q135 0 243.5 -25.5t185 -75.5t118.5 -126t42 -174q0 -121 -71.5 -214t-184.5 -159q-43 -27 -60 -55.5t-17 -71.5v-88h-508v92q0 59 7 107.5t27.5 89.5t59.5 78.5t100 76.5q47 29 72.5 53.5t25.5 59.5q0 14 -4 27.5t-17 22.5 t-39 14.5t-66 5.5q-92 0 -189.5 -28t-169.5 -77zM266 174q0 98 59.5 148.5t211.5 50.5t211 -50.5t59 -148.5t-59.5 -148.5t-210.5 -50.5q-152 0 -211.5 50.5t-59.5 148.5z" />
<glyph unicode="@" horiz-adv-x="1966" d="M82 563q0 203 72.5 369t195.5 282.5t284 180t337 63.5q186 0 352 -57.5t291 -167t197.5 -268t72.5 -363.5q0 -233 -107.5 -369.5t-303.5 -136.5q-88 0 -161 41t-102 111q-68 -74 -155.5 -108t-188.5 -34q-100 0 -172.5 30t-120 82t-70 123t-22.5 151q0 125 46 231 t125 184t182.5 122t218.5 44q141 0 248.5 -57.5t173.5 -155.5l-50 -246q-33 -160 -3 -240.5t83 -80.5q70 0 106 81t36 228t-45.5 267t-132.5 204t-213 130t-285 46q-137 0 -256 -53t-207 -145.5t-138.5 -218t-50.5 -269.5q0 -152 52.5 -277.5t143.5 -217t216 -141.5t273 -50 q129 0 252.5 36t222.5 114l88 -203q-123 -82 -273.5 -119t-306.5 -37q-182 0 -346 61.5t-288 177.5t-197.5 281.5t-73.5 374.5zM831 496q1 -107 103 -107q35 0 70.5 13.5t64.5 39.5l64 314q-27 27 -78 26q-43 0 -83 -21.5t-71 -60t-50.5 -91t-19.5 -113.5z" />
<glyph unicode="A" horiz-adv-x="1601" d="M0 0l412 1434h778l412 -1434h-572l-51 246h-356l-52 -246h-571zM700 614h201l-100 478z" />
<glyph unicode="B" horiz-adv-x="1527" d="M123 0v1434h659q305 0 470 -96.5t165 -295.5q0 -203 -168 -278q111 -35 169.5 -123t58.5 -199q0 -229 -174.5 -335.5t-497.5 -106.5h-682zM651 307h131q72 0 107 40t35 99t-35 99.5t-107 40.5h-131v-279zM651 889h117q61 0 89 33.5t28 85.5q0 51 -28 84.5t-89 33.5h-117 v-237z" />
<glyph unicode="C" horiz-adv-x="1413" d="M61 719q0 174 56.5 312t162 232.5t258 144.5t345.5 50q59 0 122.5 -6t125 -17.5t119 -28.5t102.5 -40l-31 -375q-66 47 -148.5 71.5t-175.5 24.5q-186 0 -284.5 -91t-98.5 -277t101.5 -279.5t288.5 -93.5q92 0 177 24.5t150 71.5l31 -374q-43 -23 -100.5 -40.5 t-121 -28.5t-128 -17.5t-123.5 -6.5q-193 0 -346.5 50.5t-260 146.5t-164 233.5t-57.5 313.5z" />
<glyph unicode="D" horiz-adv-x="1579" d="M123 0v1434h610q180 0 325.5 -45.5t248 -134.5t157 -224t54.5 -313t-54.5 -313.5t-157 -224.5t-248 -134t-325.5 -45h-610zM672 348h69q53 0 94.5 18.5t70 61.5t44 113.5t15.5 173.5q0 104 -15.5 175t-44 115t-69.5 62t-95 18h-69v-737z" />
<glyph unicode="E" horiz-adv-x="1374" d="M123 0v1434h1155v-349h-606v-190h563v-348h-563v-199h620v-348h-1169z" />
<glyph unicode="F" horiz-adv-x="1318" d="M123 0v1434h1155v-349h-606v-192h563v-348h-563v-545h-549z" />
<glyph unicode="G" horiz-adv-x="1628" d="M61 717q0 164 54.5 300t163 234.5t272.5 152.5t383 54q158 0 294 -27.5t257 -80.5l-31 -365q-84 55 -189.5 84t-215.5 29q-98 0 -178 -21.5t-136.5 -67.5t-88.5 -119t-32 -173t30 -173t78 -119t110.5 -67.5t130.5 -21.5q29 0 52 2t46 10v197h-197v286h652v-751 q-127 -57 -269.5 -81t-283.5 -24q-217 0 -385 51.5t-283 146.5t-174.5 232.5t-59.5 311.5z" />
<glyph unicode="H" horiz-adv-x="1671" d="M123 0v1434h549v-492h327v492h549v-1434h-549v573h-327v-573h-549z" />
<glyph unicode="I" horiz-adv-x="815" d="M133 0v1434h549v-1434h-549z" />
<glyph unicode="J" horiz-adv-x="1183" d="M10 51l29 385q125 -90 280 -90q98 0 145.5 36t47.5 122v930h549v-926q0 -268 -158 -400.5t-483 -132.5q-115 0 -222.5 18.5t-187.5 57.5z" />
<glyph unicode="K" horiz-adv-x="1626" d="M123 0v1434h549v-578l305 578h602l-371 -668l439 -766h-629l-346 694v-694h-549z" />
<glyph unicode="L" horiz-adv-x="1339" d="M123 0v1434h549v-1065h647v-369h-1196z" />
<glyph unicode="M" horiz-adv-x="2027" d="M123 0v1434h588l303 -652l303 652h588v-1434h-480v856l-200 -446h-422l-201 446v-856h-479z" />
<glyph unicode="N" horiz-adv-x="1708" d="M123 0v1434h579l404 -783v783h479v-1434h-577l-406 782v-782h-479z" />
<glyph unicode="O" horiz-adv-x="1642" d="M61 717q0 162 47.5 298t142.5 234.5t237.5 153.5t332.5 55t332.5 -55t238 -153.5t142.5 -234.5t47 -298q0 -164 -47 -300t-142.5 -234.5t-237.5 -153t-333 -54.5q-190 0 -332.5 54.5t-237.5 153t-142.5 234.5t-47.5 300zM614 717q0 -389 207 -389t207 389t-207 389 t-207 -389z" />
<glyph unicode="P" horiz-adv-x="1454" d="M123 0v1434h625q154 0 276.5 -30t208.5 -92.5t133 -158.5t47 -229t-47 -229.5t-133 -159t-209 -92t-276 -29.5h-97v-414h-528zM651 752h115q68 0 112 37t44 135t-44 135t-112 37h-115v-344z" />
<glyph unicode="Q" horiz-adv-x="1642" d="M61 717q0 162 47.5 298t142.5 234.5t237.5 153.5t332.5 55t332.5 -55t238 -153.5t142.5 -234.5t47 -298q0 -260 -121 -447.5t-362 -257.5q20 -49 67 -66.5t125 -17.5q47 0 101.5 7.5t103.5 23.5l33 -317q-76 -16 -150.5 -23.5t-152.5 -7.5q-98 0 -199.5 21.5t-173.5 64.5 q-80 49 -132 116.5t-79 176.5q-145 25 -253.5 88t-181.5 157.5t-109 217t-36 264.5zM614 717q0 -389 207 -389t207 389t-207 389t-207 -389z" />
<glyph unicode="R" horiz-adv-x="1517" d="M123 0v1434h625q154 0 276.5 -27t208.5 -85t133 -148.5t47 -215.5q0 -164 -76.5 -266t-218.5 -153l410 -539h-586l-291 430v-430h-528zM651 811h92q59 0 98.5 34.5t39.5 112.5t-39 113t-99 35h-92v-295z" />
<glyph unicode="S" horiz-adv-x="1349" d="M72 983q0 219 162.5 347t492.5 128q131 0 254 -20.5t229 -61.5l-30 -379q-88 45 -187.5 67.5t-193.5 22.5q-96 0 -135 -17t-39 -52q0 -16 10 -30.5t40 -31t83 -35t139 -44.5q391 -121 391 -445q0 -213 -154.5 -335t-482.5 -122q-156 0 -305 27t-270 86l33 393 q100 -68 221 -103.5t233 -35.5q102 0 137 18.5t35 49.5q0 16 -10 30.5t-40 30.5t-83 34.5t-139 45.5q-199 61 -295 164.5t-96 267.5z" />
<glyph unicode="T" horiz-adv-x="1331" d="M20 1065v369h1291v-369h-371v-1065h-549v1065h-371z" />
<glyph unicode="U" horiz-adv-x="1679" d="M123 612v822h553v-836q0 -135 41 -192.5t123 -57.5t123 57.5t41 192.5v836h552v-822q0 -160 -50 -279.5t-143 -198.5t-225 -119t-298 -40t-298 40t-225.5 119t-143.5 199t-50 279z" />
<glyph unicode="V" horiz-adv-x="1642" d="M20 1434h572l229 -1092l230 1092h571l-412 -1434h-778z" />
<glyph unicode="W" horiz-adv-x="2220" d="M20 1434h545l133 -981l133 981h558l133 -981l133 981h545l-345 -1434h-616l-129 981l-129 -981h-616z" />
<glyph unicode="X" horiz-adv-x="1593" d="M10 0l398 731l-377 703h579l187 -398l186 398h580l-379 -703l399 -731h-579l-207 424l-207 -424h-580z" />
<glyph unicode="Y" horiz-adv-x="1634" d="M20 1434h582l215 -529l215 529h582l-522 -859v-575h-549v575z" />
<glyph unicode="Z" horiz-adv-x="1325" d="M51 0v350l545 715h-518v369h1175v-351l-548 -714h569v-369h-1223z" />
<glyph unicode="[" horiz-adv-x="974" d="M205 -266v1802h729v-307h-309v-1188h309v-307h-729z" />
<glyph unicode="\" horiz-adv-x="1216" d="M-41 1532h428l870 -1757h-432z" />
<glyph unicode="]" horiz-adv-x="974" d="M41 41h309v1188h-309v307h729v-1802h-729v307z" />
<glyph unicode="^" horiz-adv-x="1220" d="M41 756l326 678h485l328 -678h-402l-170 354l-166 -354h-401z" />
<glyph unicode="_" d="M0 -209h1024v-139h-1024v139z" />
<glyph unicode="`" d="M176 1444v51h387l234 -348h-316z" />
<glyph unicode="a" horiz-adv-x="1265" d="M41 305q0 172 119 273.5t389 101.5h125v43q0 41 -30 57.5t-101 16.5q-98 0 -200.5 -23.5t-182.5 -60.5l-37 276q106 45 241.5 70.5t270.5 25.5q152 0 255 -25.5t165.5 -77.5t90.5 -131t28 -183v-668h-500v86q-47 -53 -125 -82t-172 -29q-74 0 -136.5 25t-106.5 70 t-68.5 104t-24.5 131zM485 322q0 -35 23.5 -57.5t64.5 -22.5q29 0 56.5 9t44.5 30v129h-107q-37 0 -59.5 -21.5t-22.5 -66.5z" />
<glyph unicode="b" horiz-adv-x="1376" d="M92 0v1495h520v-522q37 47 106.5 79.5t162.5 32.5q92 0 173 -37.5t141 -109.5t95 -174t35 -234q0 -131 -35 -233t-95 -174t-141 -110t-173 -38t-162 33t-107 80v-88h-520zM612 297q10 -10 30 -18.5t42 -8.5q31 0 52.5 12.5t35.5 42t21.5 80t7.5 125.5q0 150 -29 205.5 t-88 55.5q-23 0 -42 -8.5t-30 -18.5v-467z" />
<glyph unicode="c" horiz-adv-x="1114" d="M51 530q0 268 176 411.5t506 143.5q86 0 172 -13t160 -44l-25 -289q-43 27 -101 39.5t-126 12.5q-113 0 -175.5 -69t-62.5 -192q0 -127 65 -193.5t179 -66.5q68 0 127.5 13.5t102.5 42.5l24 -289q-74 -33 -161 -47.5t-173 -14.5q-328 0 -508 142.5t-180 412.5z" />
<glyph unicode="d" horiz-adv-x="1376" d="M51 530q0 131 35 233.5t95.5 174.5t141 109.5t173.5 37.5q92 0 161.5 -32.5t106.5 -79.5v522h520v-1495h-520v88q-37 -47 -106.5 -80t-161.5 -33t-173 38t-141.5 110t-95.5 174t-35 233zM575 530q0 -76 7.5 -126t21.5 -79.5t36 -42t52 -12.5q23 0 42.5 8.5t29.5 18.5v467 q-10 10 -29.5 18.5t-42.5 8.5q-59 0 -88 -55.5t-29 -205.5z" />
<glyph unicode="e" horiz-adv-x="1282" d="M51 532q0 131 41 234.5t118 174.5t185.5 107.5t243.5 36.5q143 0 252.5 -40.5t185.5 -115.5t115 -181.5t39 -235.5q0 -29 -2 -60.5t-6 -60.5h-697q8 -84 79 -117.5t194 -33.5q76 0 155.5 17t145.5 54l24 -272q-80 -33 -185 -48.5t-224 -15.5q-170 0 -295 43t-207 118 t-122 177.5t-40 218.5zM526 659h230q0 150 -115 150t-115 -150z" />
<glyph unicode="f" horiz-adv-x="1005" d="M20 770v291h195v31q0 98 26.5 173.5t85 126t152.5 77t228 26.5q92 0 173 -10t140 -27l-29 -260q-29 10 -68.5 16.5t-74.5 6.5q-113 0 -113 -97v-63h260v-291h-260v-770h-520v770h-195z" />
<glyph unicode="g" horiz-adv-x="1376" d="M51 551q0 119 33 217t92.5 169t140 109.5t179.5 38.5q84 0 155.5 -29.5t112.5 -82.5v88h520v-942q0 -137 -36 -237.5t-118.5 -165t-216 -95.5t-325.5 -31q-115 0 -216.5 18.5t-181.5 53.5l21 313q59 -43 139 -67.5t152 -24.5q113 0 187.5 46t74.5 149v51 q-41 -53 -112.5 -83t-155.5 -30q-98 0 -179 39t-140.5 110t-92.5 169t-33 217zM575 551q0 -135 29 -187.5t88 -52.5q23 0 42.5 8.5t29.5 18.5v426q-10 10 -29.5 18.5t-42.5 8.5q-59 0 -88 -52.5t-29 -187.5z" />
<glyph unicode="h" horiz-adv-x="1402" d="M92 0v1495h520v-522q45 49 118 80.5t175 31.5q217 0 316.5 -134t99.5 -400v-551h-520v530q0 150 -29 205.5t-88 55.5q-20 0 -40.5 -7.5t-31.5 -19.5v-764h-520z" />
<glyph unicode="i" horiz-adv-x="724" d="M84 1319q0 94 67.5 135t210.5 41t211 -41t68 -135t-67.5 -135t-211.5 -41q-143 0 -210.5 41t-67.5 135zM102 0v1061h521v-1061h-521z" />
<glyph unicode="j" horiz-adv-x="806" d="M-123 -379l33 285q51 -20 119 -21q88 0 127 42t39 145v989h520v-963q0 -111 -24.5 -204t-88 -160.5t-175.5 -105.5t-286 -38q-66 0 -136.5 7.5t-127.5 23.5zM176 1319q0 94 67.5 135t211.5 41q143 0 210.5 -41t67.5 -135t-67.5 -135t-210.5 -41t-211 41t-68 135z" />
<glyph unicode="k" horiz-adv-x="1374" d="M92 0v1495h520v-819l168 385h572l-277 -477l299 -584h-571l-191 485v-485h-520z" />
<glyph unicode="l" horiz-adv-x="724" d="M102 0v1495h521v-1495h-521z" />
<glyph unicode="m" horiz-adv-x="2050" d="M92 0v1061h520v-88q45 51 118 81.5t163 30.5q100 0 178 -35.5t131 -113.5q59 70 145.5 109.5t188.5 39.5q217 0 324.5 -128t107.5 -406v-551h-520v573q0 70 -6 112t-17.5 65.5t-28 32t-36.5 8.5q-49 0 -88 -37q18 -90 18 -203v-551h-520v573q0 70 -5 112t-15.5 65.5 t-26.5 32t-41 8.5q-43 0 -70 -27v-764h-520z" />
<glyph unicode="n" horiz-adv-x="1402" d="M92 0v1061h520v-88q45 49 118 80.5t175 31.5q217 0 316.5 -134t99.5 -400v-551h-520v530q0 150 -29 205.5t-88 55.5q-20 0 -40.5 -7.5t-31.5 -19.5v-764h-520z" />
<glyph unicode="o" horiz-adv-x="1359" d="M51 530q0 127 45 229.5t127 175.5t198 111.5t259 38.5t259 -38.5t198 -111.5t127 -175.5t45 -229.5t-45 -230t-127 -175t-198 -111t-259 -39t-259 39t-198 111t-127 175t-45 230zM575 530q0 -147 30 -203.5t75 -56.5t74.5 56.5t29.5 203.5t-29.5 204t-74.5 57t-75 -57 t-30 -204z" />
<glyph unicode="p" horiz-adv-x="1376" d="M92 -395v1456h520v-88q37 47 106.5 79.5t162.5 32.5q92 0 173 -37.5t141 -109.5t95 -174t35 -234q0 -131 -35 -233t-95 -174t-141 -110t-173 -38t-162 33t-107 80v-483h-520zM612 297q10 -10 30 -18.5t42 -8.5q31 0 52.5 12.5t35.5 42t21.5 80t7.5 125.5q0 150 -29 205.5 t-88 55.5q-23 0 -42 -8.5t-30 -18.5v-467z" />
<glyph unicode="q" horiz-adv-x="1376" d="M51 530q0 131 35 233.5t95.5 174.5t141 109.5t173.5 37.5q92 0 161.5 -32.5t106.5 -79.5v88h520v-1456h-520v483q-37 -47 -106.5 -80t-161.5 -33t-173 38t-141.5 110t-95.5 174t-35 233zM575 530q0 -76 7.5 -126t21.5 -79.5t36 -42t52 -12.5q23 0 42.5 8.5t29.5 18.5v467 q-10 10 -29.5 18.5t-42.5 8.5q-59 0 -88 -55.5t-29 -205.5z" />
<glyph unicode="r" horiz-adv-x="1028" d="M92 0v1061h520v-105q35 53 96.5 91t147.5 38q104 0 172 -45l-41 -323q-35 20 -80 30.5t-92 10.5q-78 0 -132 -40t-71 -108v-610h-520z" />
<glyph unicode="s" horiz-adv-x="1126" d="M61 57l17 316q82 -51 176 -76t186 -25q59 0 80 11.5t21 35.5q0 12 -8.5 22.5t-32 23t-64.5 29t-106 38.5q-74 25 -124 59.5t-83 76.5t-47.5 87t-14.5 90q0 172 129 256t383 84q117 0 236 -17t211 -52l-27 -293q-61 33 -143 49t-160 16q-66 0 -85 -8t-19 -24 q0 -12 8 -23.5t30.5 -24t64.5 -28.5t108 -39q143 -49 205.5 -132t62.5 -175q0 -174 -127 -266.5t-385 -92.5q-139 0 -263 19.5t-229 62.5z" />
<glyph unicode="t" horiz-adv-x="1064" d="M31 770v291h155v317h521v-317h278v-291h-278v-313q0 -102 38.5 -144.5t126.5 -42.5q33 0 66 5.5t66 15.5l20 -285q-59 -16 -129 -23.5t-135 -7.5q-174 0 -286 38t-175 105.5t-88 161t-25 203.5v287h-155z" />
<glyph unicode="u" horiz-adv-x="1402" d="M82 510v551h520v-531q0 -76 7 -126t21.5 -79.5t36 -42t52.5 -12.5q20 0 40.5 7.5t31.5 19.5v764h520v-1061h-520v88q-45 -49 -118 -81t-175 -32q-217 0 -316.5 134.5t-99.5 400.5z" />
<glyph unicode="v" horiz-adv-x="1376" d="M10 1061h533l145 -701l146 701h532l-379 -1061h-598z" />
<glyph unicode="w" horiz-adv-x="2002" d="M10 1061h498l135 -701l135 701h447l135 -701l135 701h498l-305 -1061h-576l-111 614l-110 -614h-576z" />
<glyph unicode="x" horiz-adv-x="1288" d="M0 0l285 545l-265 516h527l96 -303l98 303h527l-264 -516l284 -545h-526l-119 322l-117 -322h-526z" />
<glyph unicode="y" horiz-adv-x="1347" d="M10 1061h522l152 -602l131 602h522l-479 -1456h-526l114 395z" />
<glyph unicode="z" horiz-adv-x="1132" d="M41 0v281l408 489h-383v291h1005v-279l-405 -491h426v-291h-1051z" />
<glyph unicode="{" horiz-adv-x="997" d="M123 481v307q31 0 62.5 14.5t56 40t41 63.5t16.5 87v285q0 131 82 194.5t211 63.5h364v-307h-161q-76 0 -76 -80v-234q0 -227 -230 -280q229 -53 230 -281v-233q0 -80 76 -80h161v-307h-364q-129 0 -211 63.5t-82 194.5v284q0 49 -16.5 87t-41 64t-56 40t-62.5 14z" />
<glyph unicode="|" horiz-adv-x="647" d="M164 -410v1985h319v-1985h-319z" />
<glyph unicode="}" horiz-adv-x="997" d="M41 41h162q76 0 76 80v233q0 227 229 281q-229 53 -229 280v234q0 80 -76 80h-162v307h365q129 0 210.5 -63.5t81.5 -194.5v-285q0 -49 16.5 -87t41 -63.5t56.5 -40t62 -14.5v-307q-31 0 -62.5 -14t-56 -40t-41 -63.5t-16.5 -87.5v-284q0 -131 -81.5 -194.5t-210.5 -63.5 h-365v307z" />
<glyph unicode="~" horiz-adv-x="1220" d="M82 446q0 115 12 203t44 148.5t85 91.5t133 31q88 0 183 -41q61 -29 96 -38.5t63 -9.5q55 0 56 84h385q0 -115 -12.5 -203.5t-44 -148t-85 -90.5t-133.5 -31q-88 0 -182 41q-61 29 -96 38t-64 9q-55 0 -55 -84h-385z" />
<glyph unicode="&#xa1;" horiz-adv-x="808" d="M133 887q0 98 59.5 148t210.5 50q152 0 211.5 -50t59.5 -148t-59.5 -148.5t-211.5 -50.5t-211 50.5t-59 148.5zM135 -72l47 650h447l47 -650v-301h-541v301z" />
<glyph unicode="&#xa2;" horiz-adv-x="1114" d="M51 530q0 217 118 353.5t343 181.5v235h287v-217q70 -4 138.5 -17t127.5 -38l-25 -289q-43 27 -101 39.5t-126 12.5q-113 0 -175.5 -69t-62.5 -192q0 -127 65 -193.5t179 -66.5q68 0 127.5 13.5t102.5 42.5l24 -289q-61 -29 -132 -42t-142 -18v-213h-287v234 q-223 43 -342 178t-119 354z" />
<glyph unicode="&#xa3;" horiz-adv-x="1282" d="M41 0v336q59 29 95 82t36 112v119h-131v139h131v220q0 223 141.5 336.5t405.5 113.5q127 0 238.5 -18.5t230.5 -61.5l-31 -352q-66 47 -137.5 64.5t-132.5 17.5q-90 0 -128 -30.5t-38 -90.5v-199h313v-139h-313v-102q0 -53 -23.5 -107.5t-68.5 -91.5h633v-348h-1221z" />
<glyph unicode="&#xa4;" horiz-adv-x="1513" d="M102 289l193 192q-41 92 -41 199q0 106 41 199l-193 194l238 252l213 -215q94 33 203 33t202 -33l216 215l237 -252l-194 -194q40 -93 40 -199q0 -104 -40 -197l194 -194l-237 -252l-216 215q-94 -33 -202 -33q-115 0 -203 31l-213 -213zM647 680q0 -78 31 -118t78 -40 t78.5 40t31.5 118q0 80 -31.5 120t-78.5 40t-78 -40t-31 -120z" />
<glyph unicode="&#xa5;" horiz-adv-x="1490" d="M20 1434h541l174 -529l195 529h540l-393 -732h230v-139h-297v-123h297v-139h-297v-301h-549v301h-326v139h326v123h-326v139h260z" />
<glyph unicode="&#xa6;" horiz-adv-x="647" d="M164 -229v721h319v-721h-319zM164 713v721h319v-721h-319z" />
<glyph unicode="&#xa7;" horiz-adv-x="1282" d="M113 1143q0 68 28.5 125t91 99t162 66.5t242.5 24.5q129 0 259 -24.5t232 -79.5l-28 -289q-82 47 -171 71.5t-177 24.5q-53 0 -79 -19.5t-26 -49.5q0 -29 44 -55.5t157 -59.5q141 -41 230 -119t89 -211q0 -94 -50 -164.5t-122 -111.5q84 -35 129 -103.5t45 -156.5 q0 -68 -28.5 -125.5t-91 -99.5t-162 -66.5t-242.5 -24.5q-129 0 -255 21.5t-234 68.5l16 328q78 -59 172 -90t186 -31q104 0 105 70q0 29 -44 55.5t-157 58.5q-141 41 -230 119t-89 211q0 94 50 165t122 112q-84 41 -129 106.5t-45 153.5zM569 635q0 -35 29 -58.5t72 -35.5 q51 25 51 88q0 35 -28.5 58.5t-71.5 35.5q-52 -27 -52 -88z" />
<glyph unicode="&#xa8;" d="M104 1321q0 170 170 170t170 -170t-170 -170t-170 170zM580 1321q0 170 170 170t170 -170t-170 -170t-170 170z" />
<glyph unicode="&#xa9;" horiz-adv-x="1699" d="M109 717q0 154 58 289t158.5 235t235.5 158.5t289 58.5t289 -58.5t235.5 -158.5t158.5 -235.5t58 -288.5q0 -154 -58 -289t-158.5 -235.5t-235.5 -159t-289 -58.5t-289 58.5t-235.5 159t-158.5 235.5t-58 289zM223 717q0 -133 49.5 -249t134.5 -202t199.5 -135t243.5 -49 t243.5 49t199.5 135t134.5 202t49.5 249q0 131 -49.5 246.5t-134.5 201.5t-199.5 136.5t-243.5 50.5t-243.5 -50.5t-199.5 -136.5t-134.5 -201.5t-49.5 -246.5zM401 713q0 106 37 189t103.5 139.5t160 86t207.5 29.5q68 0 144.5 -13.5t130.5 -39.5l-21 -232q-35 27 -78 38.5 t-90 11.5q-74 0 -124 -55.5t-50 -153.5t52.5 -152.5t142.5 -54.5q39 0 75.5 7t71.5 28l21 -230q-59 -25 -124 -33t-128 -8q-252 0 -391.5 115t-139.5 328z" />
<glyph unicode="&#xaa;" d="M88 887q0 127 94 196.5t264 69.5h93v31q0 35 -21.5 48t-71.5 13q-66 0 -138 -16.5t-132 -44.5l-33 194q84 37 179.5 54.5t195.5 17.5q111 0 187.5 -18.5t125 -57.5t69 -96t20.5 -135v-490h-381v64q-35 -41 -90.5 -61.5t-114.5 -20.5q-113 0 -179.5 68.5t-66.5 183.5z M391 885q0 -29 18.5 -46.5t55.5 -17.5q20 0 40.5 7.5t33.5 21.5v104h-80q-68 0 -68 -69z" />
<glyph unicode="&#xab;" horiz-adv-x="1148" d="M102 489v299l455 420v-377l-215 -192l215 -193v-376zM612 489v299l455 420v-377l-215 -192l215 -193v-376z" />
<glyph unicode="&#xac;" horiz-adv-x="1220" d="M72 635v307h1056v-637h-385v330h-671z" />
<glyph unicode="&#xad;" horiz-adv-x="790" d="M82 516v328h627v-328h-627z" />
<glyph unicode="&#xae;" horiz-adv-x="1699" d="M109 717q0 154 58 289t158.5 235t235.5 158.5t289 58.5t289 -58.5t235.5 -158.5t158.5 -235.5t58 -288.5q0 -154 -58 -289t-158.5 -235.5t-235.5 -159t-289 -58.5t-289 58.5t-235.5 159t-158.5 235.5t-58 289zM223 717q0 -133 49.5 -249t134.5 -202t199.5 -135t243.5 -49 q137 0 257 55.5t206 151.5h-348l-146 258v-258h-354v854h457q164 0 259 -72t95 -211q0 -94 -41 -155.5t-115 -92.5l207 -309q70 84 110 189.5t40 224.5q0 131 -49.5 246.5t-134.5 201.5t-199.5 136.5t-243.5 50.5t-243.5 -50.5t-199.5 -136.5t-134.5 -201.5t-49.5 -246.5z M799 772h59q29 0 45.5 20.5t16.5 67.5t-16.5 67.5t-45.5 20.5h-59v-176z" />
<glyph unicode="&#xaf;" d="M162 1200v240h700v-240h-700z" />
<glyph unicode="&#xb0;" d="M215 1174q0 59 22.5 111t62.5 90t94.5 60.5t117.5 22.5t117.5 -22.5t94.5 -60.5t62.5 -90t22.5 -111t-22.5 -111.5t-62.5 -90.5t-94.5 -60.5t-117.5 -22.5t-117.5 22.5t-94.5 60.5t-62.5 90t-22.5 112zM436 1174q0 -33 20.5 -54.5t55.5 -21.5t55.5 21.5t20.5 54.5 t-20.5 54t-55.5 21t-55.5 -21t-20.5 -54z" />
<glyph unicode="&#xb1;" horiz-adv-x="1220" d="M82 0v307h1057v-307h-1057zM82 670v307h336v321h385v-321h336v-307h-336v-322h-385v322h-336z" />
<glyph unicode="&#xb2;" horiz-adv-x="942" d="M90 481v205q61 45 128 100.5t134 118.5q59 57 89 105.5t30 107.5q0 51 -30.5 75t-102.5 24q-61 0 -116.5 -17.5t-96.5 -44.5l-14 236q66 29 147.5 44t167.5 15q211 0 309.5 -85t98.5 -228q0 -158 -127 -291q-41 -41 -93.5 -75t-99.5 -60h315v-230h-739z" />
<glyph unicode="&#xb3;" horiz-adv-x="942" d="M86 524l20 244q111 -82 256 -82q141 0 142 78q0 53 -74 83t-235 30v202q156 0 226.5 21.5t70.5 66.5q0 61 -127 62q-59 0 -125 -15.5t-117 -42.5l-19 220q72 31 160 45t180 14q182 0 291 -69.5t109 -196.5q0 -70 -37 -124t-109 -83q74 -25 116 -83t42 -130 q0 -135 -114.5 -217t-319.5 -82q-92 0 -176 14.5t-160 44.5z" />
<glyph unicode="&#xb4;" d="M227 1147l234 348h387v-51l-305 -297h-316z" />
<glyph unicode="&#xb5;" horiz-adv-x="1433" d="M92 -395v1456h520v-756q16 -16 42 -25.5t55 -9.5q41 0 70.5 16.5t41.5 45.5v729h520v-1061h-520v72q-16 -41 -52 -69t-85 -28q-41 0 -72 13v-383h-520z" />
<glyph unicode="&#xb6;" horiz-adv-x="1392" d="M61 989q0 106 35 188.5t97.5 139.5t147.5 87t185 30h744v-1702h-324v1446h-78v-1446h-331v813h-11q-100 0 -185 29.5t-147.5 86t-97.5 139.5t-35 189z" />
<glyph unicode="&#xb7;" horiz-adv-x="696" d="M127 680q0 223 221 223t221 -223t-221 -224q-221 1 -221 224z" />
<glyph unicode="&#xb8;" d="M266 -299q27 -10 57.5 -15t57.5 -5q41 0 61.5 13t20.5 36q0 27 -35 47t-145 20l100 203h305l-61 -113q59 -20 95 -64t36 -106q0 -100 -88 -152t-236 -52q-47 0 -92 3t-76 11v174z" />
<glyph unicode="&#xb9;" horiz-adv-x="942" d="M47 1178l338 258h311v-955h-350v625l-164 -117z" />
<glyph unicode="&#xba;" d="M53 1044q0 92 33 168t92.5 128.5t144.5 81t189 28.5t189 -28.5t144.5 -81t92.5 -128t33 -168.5q0 -94 -33 -168.5t-92.5 -127t-144.5 -81t-189 -28.5t-189 28.5t-144.5 81t-92.5 127t-33 168.5zM436 1044q0 -109 21.5 -149.5t54.5 -40.5t54.5 41t21.5 149 q0 109 -21.5 150t-54.5 41t-54.5 -41t-21.5 -150z" />
<glyph unicode="&#xbb;" horiz-adv-x="1148" d="M82 70v376l215 193l-215 192v377l455 -420v-299zM592 70v376l215 193l-215 192v377l455 -420v-299z" />
<glyph unicode="&#xbc;" horiz-adv-x="2191" d="M47 1178l338 258h311v-955h-350v625l-164 -117zM569 -31l805 1495h227l-805 -1495h-227zM1278 158v246l332 551h424v-551h96v-246h-96v-156h-336v156h-420zM1538 404h160v278z" />
<glyph unicode="&#xbd;" horiz-adv-x="2191" d="M47 1178l338 258h311v-955h-350v625l-164 -117zM537 -31l805 1495h227l-805 -1495h-227zM1368 0v205q61 45 128 100.5t134 118.5q59 57 89 105.5t30 107.5q0 51 -30.5 75t-102.5 24q-61 0 -116.5 -17.5t-96.5 -44.5l-14 236q66 29 147.5 44t167.5 15q211 0 309.5 -85 t98.5 -228q0 -158 -127 -291q-41 -41 -93.5 -75t-99.5 -60h315v-230h-739z" />
<glyph unicode="&#xbe;" horiz-adv-x="2191" d="M86 524l20 244q111 -82 256 -82q141 0 142 78q0 53 -74 83t-235 30v202q156 0 226.5 21.5t70.5 66.5q0 61 -127 62q-59 0 -125 -15.5t-117 -42.5l-19 220q72 31 160 45t180 14q182 0 291 -69.5t109 -196.5q0 -70 -37 -124t-109 -83q74 -25 116 -83t42 -130 q0 -135 -114.5 -217t-319.5 -82q-92 0 -176 14.5t-160 44.5zM610 -31l805 1495h227l-805 -1495h-227zM1278 158v246l332 551h424v-551h96v-246h-96v-156h-336v156h-420zM1538 404h160v278z" />
<glyph unicode="&#xbf;" horiz-adv-x="1226" d="M102 4q0 121 72 214t184 159q43 27 60.5 55.5t17.5 71.5v88h508v-92q0 -59 -7 -107.5t-27.5 -89.5t-59.5 -79t-100 -77q-47 -29 -73 -53t-26 -59q0 -14 4 -27.5t17.5 -23t39 -14.5t66.5 -5q92 0 189.5 27.5t169.5 77.5l28 -359q-86 -51 -215 -79.5t-258 -28.5 q-135 0 -244.5 25.5t-186.5 75.5t-118 126t-41 174zM420 887q0 98 59.5 148t210.5 50q152 0 211.5 -50t59.5 -148t-59.5 -148.5t-211.5 -50.5t-211 50t-59 149z" />
<glyph unicode="&#xc0;" horiz-adv-x="1601" d="M0 0l412 1434h778l412 -1434h-572l-51 246h-356l-52 -246h-571zM389 1841v51h387l234 -348h-316zM700 614h201l-100 478z" />
<glyph unicode="&#xc1;" horiz-adv-x="1601" d="M0 0l412 1434h778l412 -1434h-572l-51 246h-356l-52 -246h-571zM594 1544l234 348h387v-51l-305 -297h-316zM700 614h201l-100 478z" />
<glyph unicode="&#xc2;" horiz-adv-x="1601" d="M0 0l412 1434h778l412 -1434h-572l-51 246h-356l-52 -246h-571zM379 1544l211 348h422l211 -348h-309l-113 153l-113 -153h-309zM700 614h201l-100 478z" />
<glyph unicode="&#xc3;" horiz-adv-x="1601" d="M0 0l412 1434h778l412 -1434h-572l-51 246h-356l-52 -246h-571zM420 1554q0 86 18.5 147.5t51 101.5t76 59.5t90.5 19.5q63 0 141 -33q66 -29 96 -29q23 0 35 9.5t12 50.5h244q0 -86 -19.5 -147.5t-51 -101.5t-74.5 -59.5t-91 -19.5q-63 0 -141 33q-66 29 -96 29 q-23 0 -35 -9.5t-12 -50.5h-244zM700 614h201l-100 478z" />
<glyph unicode="&#xc4;" horiz-adv-x="1601" d="M0 0l412 1434h778l412 -1434h-572l-51 246h-356l-52 -246h-571zM393 1718q0 170 170 170t170 -170t-170 -170t-170 170zM700 614h201l-100 478zM869 1718q0 170 170 170t170 -170t-170 -170t-170 170z" />
<glyph unicode="&#xc5;" horiz-adv-x="1601" d="M0 0l412 1434h778l412 -1434h-572l-51 246h-356l-52 -246h-571zM537 1718q0 53 20.5 99t55 81t84 54.5t104.5 19.5t104.5 -19.5t84 -54.5t55 -81t20.5 -99t-20.5 -99t-55 -81t-84 -54.5t-104.5 -19.5t-104.5 19.5t-84 54.5t-55 81t-20.5 99zM700 614h201l-100 478z M733 1718q0 -29 19.5 -48.5t48.5 -19.5t48.5 19.5t19.5 48.5t-19.5 48.5t-48.5 19.5t-48.5 -19.5t-19.5 -48.5z" />
<glyph unicode="&#xc6;" horiz-adv-x="2103" d="M0 0l555 1434h1452v-349h-514v-190h471v-348h-471v-199h528v-348h-1056v246h-310l-84 -246h-571zM776 594h189v539z" />
<glyph unicode="&#xc7;" horiz-adv-x="1413" d="M61 719q0 174 56.5 312t162 232.5t258 144.5t345.5 50q59 0 122.5 -6t125 -17.5t119 -28.5t102.5 -40l-31 -375q-66 47 -148.5 71.5t-175.5 24.5q-186 0 -284.5 -91t-98.5 -277t101.5 -279.5t288.5 -93.5q92 0 177 24.5t150 71.5l31 -374q-63 -33 -152.5 -53.5 t-181.5 -30.5l-51 -97q59 -20 95 -64t36 -106q0 -100 -88 -152t-236 -52q-47 0 -92 3t-76 11v174q27 -10 58 -15t57 -5q41 0 61.5 13t20.5 36q0 27 -35 47t-145 20l92 189q-156 20 -278.5 78.5t-208.5 151.5t-131.5 220t-45.5 283z" />
<glyph unicode="&#xc8;" horiz-adv-x="1374" d="M123 0v1434h1155v-349h-606v-190h563v-348h-563v-199h620v-348h-1169zM328 1841v51h387l234 -348h-316z" />
<glyph unicode="&#xc9;" horiz-adv-x="1374" d="M123 0v1434h1155v-349h-606v-190h563v-348h-563v-199h620v-348h-1169zM489 1544l234 348h387v-51l-305 -297h-316z" />
<glyph unicode="&#xca;" horiz-adv-x="1374" d="M123 0v1434h1155v-349h-606v-190h563v-348h-563v-199h620v-348h-1169zM272 1544l211 348h422l211 -348h-309l-113 153l-113 -153h-309z" />
<glyph unicode="&#xcb;" horiz-adv-x="1374" d="M123 0v1434h1155v-349h-606v-190h563v-348h-563v-199h620v-348h-1169zM280 1718q0 170 170 170t170 -170t-170 -170t-170 170zM756 1718q0 170 170 170t170 -170t-170 -170t-170 170z" />
<glyph unicode="&#xcc;" horiz-adv-x="815" d="M-25 1841v51h387l234 -348h-316zM133 0v1434h549v-1434h-549z" />
<glyph unicode="&#xcd;" horiz-adv-x="815" d="M133 0v1434h549v-1434h-549zM223 1544l234 348h387v-51l-305 -297h-316z" />
<glyph unicode="&#xce;" horiz-adv-x="815" d="M-12 1544l211 348h422l211 -348h-309l-113 153l-113 -153h-309zM133 0v1434h549v-1434h-549z" />
<glyph unicode="&#xcf;" horiz-adv-x="815" d="M2 1718q0 170 170 170t170 -170t-170 -170t-170 170zM133 0v1434h549v-1434h-549zM478 1718q0 170 170 170t170 -170t-170 -170t-170 170z" />
<glyph unicode="&#xd0;" horiz-adv-x="1599" d="M0 623v188h143v623h611q180 0 325.5 -45.5t248 -134.5t156.5 -224t54 -313t-54 -313.5t-156.5 -224.5t-248 -134t-325.5 -45h-611v623h-143zM692 348h70q53 0 94 18.5t69.5 61.5t44 113.5t15.5 173.5q0 104 -15.5 175t-44 115t-69.5 62t-94 18h-70v-274h156v-188h-156 v-275z" />
<glyph unicode="&#xd1;" horiz-adv-x="1708" d="M123 0v1434h579l404 -783v783h479v-1434h-577l-406 782v-782h-479zM473 1554q0 86 18.5 147.5t51 101.5t76 59.5t90.5 19.5q63 0 141 -33q66 -29 96 -29q23 0 35 9.5t12 50.5h244q0 -86 -19.5 -147.5t-51 -101.5t-74.5 -59.5t-91 -19.5q-63 0 -141 33q-66 29 -96 29 q-23 0 -35 -9.5t-12 -50.5h-244z" />
<glyph unicode="&#xd2;" horiz-adv-x="1642" d="M61 717q0 162 47.5 298t142.5 234.5t237.5 153.5t332.5 55t332.5 -55t238 -153.5t142.5 -234.5t47 -298q0 -164 -47 -300t-142.5 -234.5t-237.5 -153t-333 -54.5q-190 0 -332.5 54.5t-237.5 153t-142.5 234.5t-47.5 300zM434 1841v51h387l234 -348h-316zM614 717 q0 -389 207 -389t207 389t-207 389t-207 -389z" />
<glyph unicode="&#xd3;" horiz-adv-x="1642" d="M61 717q0 162 47.5 298t142.5 234.5t237.5 153.5t332.5 55t332.5 -55t238 -153.5t142.5 -234.5t47 -298q0 -164 -47 -300t-142.5 -234.5t-237.5 -153t-333 -54.5q-190 0 -332.5 54.5t-237.5 153t-142.5 234.5t-47.5 300zM587 1544l234 348h387v-51l-305 -297h-316z M614 717q0 -389 207 -389t207 389t-207 389t-207 -389z" />
<glyph unicode="&#xd4;" horiz-adv-x="1642" d="M61 717q0 162 47.5 298t142.5 234.5t237.5 153.5t332.5 55t332.5 -55t238 -153.5t142.5 -234.5t47 -298q0 -164 -47 -300t-142.5 -234.5t-237.5 -153t-333 -54.5q-190 0 -332.5 54.5t-237.5 153t-142.5 234.5t-47.5 300zM399 1544l211 348h422l211 -348h-309l-113 153 l-113 -153h-309zM614 717q0 -389 207 -389t207 389t-207 389t-207 -389z" />
<glyph unicode="&#xd5;" horiz-adv-x="1642" d="M61 717q0 162 47.5 298t142.5 234.5t237.5 153.5t332.5 55t332.5 -55t238 -153.5t142.5 -234.5t47 -298q0 -164 -47 -300t-142.5 -234.5t-237.5 -153t-333 -54.5q-190 0 -332.5 54.5t-237.5 153t-142.5 234.5t-47.5 300zM440 1554q0 86 18.5 147.5t51 101.5t76 59.5 t90.5 19.5q63 0 141 -33q66 -29 96 -29q23 0 35 9.5t12 50.5h244q0 -86 -19.5 -147.5t-51 -101.5t-74.5 -59.5t-91 -19.5q-63 0 -141 33q-66 29 -96 29q-23 0 -35 -9.5t-12 -50.5h-244zM614 717q0 -389 207 -389t207 389t-207 389t-207 -389z" />
<glyph unicode="&#xd6;" horiz-adv-x="1642" d="M61 717q0 162 47.5 298t142.5 234.5t237.5 153.5t332.5 55t332.5 -55t238 -153.5t142.5 -234.5t47 -298q0 -164 -47 -300t-142.5 -234.5t-237.5 -153t-333 -54.5q-190 0 -332.5 54.5t-237.5 153t-142.5 234.5t-47.5 300zM413 1718q0 170 170 170t170 -170t-170 -170 t-170 170zM614 717q0 -389 207 -389t207 389t-207 389t-207 -389zM889 1718q0 170 170 170t170 -170t-170 -170t-170 170z" />
<glyph unicode="&#xd7;" horiz-adv-x="1220" d="M82 408l274 270l-274 272l254 254l274 -272l275 272l254 -254l-275 -272l275 -270l-254 -254l-275 272l-274 -272z" />
<glyph unicode="&#xd8;" horiz-adv-x="1642" d="M61 717q0 162 47.5 298t142.5 234.5t237.5 153.5t332.5 55q84 0 157 -11t138 -32l127 223h209l-170 -299q150 -96 224.5 -256.5t74.5 -365.5q0 -164 -47 -300t-142.5 -234.5t-237.5 -153t-333 -54.5q-84 0 -156.5 11.5t-138.5 29.5l-127 -221h-209l170 297 q-152 98 -225.5 259t-73.5 366zM614 717q0 -47 3.5 -86t7.5 -74l297 518q-43 31 -101 31q-207 0 -207 -389zM721 358q39 -30 100 -30q207 0 207 389q0 92 -12 160z" />
<glyph unicode="&#xd9;" horiz-adv-x="1679" d="M123 612v822h553v-836q0 -135 41 -192.5t123 -57.5t123 57.5t41 192.5v836h552v-822q0 -160 -50 -279.5t-143 -198.5t-225 -119t-298 -40t-298 40t-225.5 119t-143.5 199t-50 279zM430 1841v51h387l234 -348h-316z" />
<glyph unicode="&#xda;" horiz-adv-x="1679" d="M123 612v822h553v-836q0 -135 41 -192.5t123 -57.5t123 57.5t41 192.5v836h552v-822q0 -160 -50 -279.5t-143 -198.5t-225 -119t-298 -40t-298 40t-225.5 119t-143.5 199t-50 279zM628 1544l234 348h387v-51l-305 -297h-316z" />
<glyph unicode="&#xdb;" horiz-adv-x="1679" d="M123 612v822h553v-836q0 -135 41 -192.5t123 -57.5t123 57.5t41 192.5v836h552v-822q0 -160 -50 -279.5t-143 -198.5t-225 -119t-298 -40t-298 40t-225.5 119t-143.5 199t-50 279zM418 1544l211 348h422l211 -348h-309l-113 153l-113 -153h-309z" />
<glyph unicode="&#xdc;" horiz-adv-x="1679" d="M123 612v822h553v-836q0 -135 41 -192.5t123 -57.5t123 57.5t41 192.5v836h552v-822q0 -160 -50 -279.5t-143 -198.5t-225 -119t-298 -40t-298 40t-225.5 119t-143.5 199t-50 279zM432 1718q0 170 170 170t170 -170t-170 -170t-170 170zM908 1718q0 170 170 170t170 -170 t-170 -170t-170 170z" />
<glyph unicode="&#xdd;" horiz-adv-x="1634" d="M20 1434h582l215 -529l215 529h582l-522 -859v-575h-549v575zM604 1544l234 348h387v-51l-305 -297h-316z" />
<glyph unicode="&#xde;" horiz-adv-x="1454" d="M123 0v1434h528v-199h97q154 0 276.5 -29.5t208.5 -92t133 -159t47 -229.5t-47 -229.5t-133 -159t-209 -92t-276 -29.5h-97v-215h-528zM651 553h115q68 0 112 37t44 135t-44 135t-112 37h-115v-344z" />
<glyph unicode="&#xdf;" horiz-adv-x="1630" d="M123 0v770q0 352 176 520t561 168q156 0 280 -31.5t209 -88t130 -133.5t45 -165q0 -106 -58.5 -190t-177.5 -127q139 -31 215 -121t76 -227q0 -88 -35 -162t-103.5 -126t-173 -82t-243.5 -30q-92 0 -181 14.5t-161 41.5l23 356q84 -63 202 -63q66 0 103 17t37 60 q0 27 -12.5 53.5t-44.5 48t-86 34t-138 12.5v348q121 0 173 30.5t52 82.5q0 53 -42 76.5t-111 23.5q-45 0 -80 -12.5t-58.5 -43t-36 -81.5t-12.5 -129v-844h-528z" />
<glyph unicode="&#xe0;" horiz-adv-x="1265" d="M41 305q0 172 119 273.5t389 101.5h125v43q0 41 -30 57.5t-101 16.5q-98 0 -200.5 -23.5t-182.5 -60.5l-37 276q106 45 241.5 70.5t270.5 25.5q152 0 255 -25.5t165.5 -77.5t90.5 -131t28 -183v-668h-500v86q-47 -53 -125 -82t-172 -29q-74 0 -136.5 25t-106.5 70 t-68.5 104t-24.5 131zM233 1485v51h387l234 -348h-316zM485 322q0 -35 23.5 -57.5t64.5 -22.5q29 0 56.5 9t44.5 30v129h-107q-37 0 -59.5 -21.5t-22.5 -66.5z" />
<glyph unicode="&#xe1;" horiz-adv-x="1265" d="M41 305q0 172 119 273.5t389 101.5h125v43q0 41 -30 57.5t-101 16.5q-98 0 -200.5 -23.5t-182.5 -60.5l-37 276q106 45 241.5 70.5t270.5 25.5q152 0 255 -25.5t165.5 -77.5t90.5 -131t28 -183v-668h-500v86q-47 -53 -125 -82t-172 -29q-74 0 -136.5 25t-106.5 70 t-68.5 104t-24.5 131zM374 1188l234 348h387v-51l-305 -297h-316zM485 322q0 -35 23.5 -57.5t64.5 -22.5q29 0 56.5 9t44.5 30v129h-107q-37 0 -59.5 -21.5t-22.5 -66.5z" />
<glyph unicode="&#xe2;" horiz-adv-x="1265" d="M41 305q0 172 119 273.5t389 101.5h125v43q0 41 -30 57.5t-101 16.5q-98 0 -200.5 -23.5t-182.5 -60.5l-37 276q106 45 241.5 70.5t270.5 25.5q152 0 255 -25.5t165.5 -77.5t90.5 -131t28 -183v-668h-500v86q-47 -53 -125 -82t-172 -29q-74 0 -136.5 25t-106.5 70 t-68.5 104t-24.5 131zM201 1188l211 348h422l211 -348h-309l-113 153l-113 -153h-309zM485 322q0 -35 23.5 -57.5t64.5 -22.5q29 0 56.5 9t44.5 30v129h-107q-37 0 -59.5 -21.5t-22.5 -66.5z" />
<glyph unicode="&#xe3;" horiz-adv-x="1265" d="M41 305q0 172 119 273.5t389 101.5h125v43q0 41 -30 57.5t-101 16.5q-98 0 -200.5 -23.5t-182.5 -60.5l-37 276q106 45 241.5 70.5t270.5 25.5q152 0 255 -25.5t165.5 -77.5t90.5 -131t28 -183v-668h-500v86q-47 -53 -125 -82t-172 -29q-74 0 -136.5 25t-106.5 70 t-68.5 104t-24.5 131zM242 1198q0 86 18.5 147.5t51 101.5t76 59.5t90.5 19.5q63 0 141 -33q66 -29 96 -29q23 0 35 9.5t12 50.5h244q0 -86 -19.5 -147.5t-51 -101.5t-74.5 -59.5t-91 -19.5q-63 0 -141 33q-66 29 -96 29q-23 0 -35 -9.5t-12 -50.5h-244zM485 322 q0 -35 23.5 -57.5t64.5 -22.5q29 0 56.5 9t44.5 30v129h-107q-37 0 -59.5 -21.5t-22.5 -66.5z" />
<glyph unicode="&#xe4;" horiz-adv-x="1265" d="M41 305q0 172 119 273.5t389 101.5h125v43q0 41 -30 57.5t-101 16.5q-98 0 -200.5 -23.5t-182.5 -60.5l-37 276q106 45 241.5 70.5t270.5 25.5q152 0 255 -25.5t165.5 -77.5t90.5 -131t28 -183v-668h-500v86q-47 -53 -125 -82t-172 -29q-74 0 -136.5 25t-106.5 70 t-68.5 104t-24.5 131zM213 1362q0 170 170 170t170 -170t-170 -170t-170 170zM485 322q0 -35 23.5 -57.5t64.5 -22.5q29 0 56.5 9t44.5 30v129h-107q-37 0 -59.5 -21.5t-22.5 -66.5zM689 1362q0 170 170 170t170 -170t-170 -170t-170 170z" />
<glyph unicode="&#xe5;" horiz-adv-x="1265" d="M41 305q0 172 119 273.5t389 101.5h125v43q0 41 -30 57.5t-101 16.5q-98 0 -200.5 -23.5t-182.5 -60.5l-37 276q106 45 241.5 70.5t270.5 25.5q152 0 255 -25.5t165.5 -77.5t90.5 -131t28 -183v-668h-500v86q-47 -53 -125 -82t-172 -29q-74 0 -136.5 25t-106.5 70 t-68.5 104t-24.5 131zM359 1382q0 53 20.5 99t55 81t84 54.5t104.5 19.5t104.5 -19.5t84 -54.5t55 -81t20.5 -99t-20.5 -99t-55 -81t-84 -54.5t-104.5 -19.5t-104.5 19.5t-84 54.5t-55 81t-20.5 99zM485 322q0 -35 23.5 -57.5t64.5 -22.5q29 0 56.5 9t44.5 30v129h-107 q-37 0 -59.5 -21.5t-22.5 -66.5zM555 1382q0 -29 19.5 -48.5t48.5 -19.5t48.5 19.5t19.5 48.5t-19.5 48.5t-48.5 19.5t-48.5 -19.5t-19.5 -48.5z" />
<glyph unicode="&#xe6;" horiz-adv-x="1904" d="M41 305q0 172 119 273.5t389 101.5h125v43q0 41 -30 57.5t-101 16.5q-98 0 -200.5 -23.5t-182.5 -60.5l-37 282q88 41 200.5 65.5t231.5 24.5q123 0 214 -33.5t144 -99.5q61 59 153.5 96t215.5 37q131 0 237.5 -40.5t180.5 -115.5t113.5 -181.5t39.5 -235.5 q0 -29 -2 -62.5t-6 -58.5h-692q12 -86 83 -118.5t200 -32.5q74 0 150.5 17t135.5 54l25 -268q-70 -35 -166 -51.5t-199 -16.5q-154 0 -271.5 40t-188.5 120q-74 -86 -190 -123t-269 -37q-96 0 -174 25t-133.5 70t-85 104t-29.5 131zM485 322q0 -35 23.5 -57.5t64.5 -22.5 q35 0 60.5 11t40.5 28v129h-107q-37 0 -59.5 -21.5t-22.5 -66.5zM1161 659h230q0 150 -115 150t-115 -150z" />
<glyph unicode="&#xe7;" horiz-adv-x="1114" d="M51 528q0 268 176 411.5t506 143.5q86 0 172 -13t160 -44l-25 -289q-43 27 -101 39t-126 12q-113 0 -175.5 -68.5t-62.5 -191.5q0 -127 65 -193.5t179 -66.5q68 0 127.5 13.5t102.5 42.5l24 -289q-49 -23 -104.5 -36t-114.5 -19l-49 -93q59 -20 95 -64t36 -106 q0 -100 -88 -152t-236 -52q-47 0 -92 3t-76 11v174q27 -10 57.5 -15t57.5 -5q41 0 61.5 13t20.5 36q0 27 -35 47t-145 20l94 191q-242 37 -373 174t-131 366z" />
<glyph unicode="&#xe8;" horiz-adv-x="1282" d="M51 532q0 131 41 234.5t118 174.5t185.5 107.5t243.5 36.5q143 0 252.5 -40.5t185.5 -115.5t115 -181.5t39 -235.5q0 -29 -2 -60.5t-6 -60.5h-697q8 -84 79 -117.5t194 -33.5q76 0 155.5 17t145.5 54l24 -272q-80 -33 -185 -48.5t-224 -15.5q-170 0 -295 43t-207 118 t-122 177.5t-40 218.5zM262 1485v51h387l234 -348h-316zM526 659h230q0 150 -115 150t-115 -150z" />
<glyph unicode="&#xe9;" horiz-adv-x="1282" d="M51 532q0 131 41 234.5t118 174.5t185.5 107.5t243.5 36.5q143 0 252.5 -40.5t185.5 -115.5t115 -181.5t39 -235.5q0 -29 -2 -60.5t-6 -60.5h-697q8 -84 79 -117.5t194 -33.5q76 0 155.5 17t145.5 54l24 -272q-80 -33 -185 -48.5t-224 -15.5q-170 0 -295 43t-207 118 t-122 177.5t-40 218.5zM346 1188l234 348h387v-51l-305 -297h-316zM526 659h230q0 150 -115 150t-115 -150z" />
<glyph unicode="&#xea;" horiz-adv-x="1282" d="M51 532q0 131 41 234.5t118 174.5t185.5 107.5t243.5 36.5q143 0 252.5 -40.5t185.5 -115.5t115 -181.5t39 -235.5q0 -29 -2 -60.5t-6 -60.5h-697q8 -84 79 -117.5t194 -33.5q76 0 155.5 17t145.5 54l24 -272q-80 -33 -185 -48.5t-224 -15.5q-170 0 -295 43t-207 118 t-122 177.5t-40 218.5zM209 1188l211 348h422l211 -348h-309l-113 153l-113 -153h-309zM526 659h230q0 150 -115 150t-115 -150z" />
<glyph unicode="&#xeb;" horiz-adv-x="1282" d="M51 532q0 131 41 234.5t118 174.5t185.5 107.5t243.5 36.5q143 0 252.5 -40.5t185.5 -115.5t115 -181.5t39 -235.5q0 -29 -2 -60.5t-6 -60.5h-697q8 -84 79 -117.5t194 -33.5q76 0 155.5 17t145.5 54l24 -272q-80 -33 -185 -48.5t-224 -15.5q-170 0 -295 43t-207 118 t-122 177.5t-40 218.5zM223 1362q0 170 170 170t170 -170t-170 -170t-170 170zM526 659h230q0 150 -115 150t-115 -150zM699 1362q0 170 170 170t170 -170t-170 -170t-170 170z" />
<glyph unicode="&#xec;" horiz-adv-x="724" d="M-70 1485v51h387l234 -348h-316zM102 0v1061h521v-1061h-521z" />
<glyph unicode="&#xed;" horiz-adv-x="724" d="M102 0v1061h521v-1061h-521zM178 1188l234 348h387v-51l-305 -297h-316z" />
<glyph unicode="&#xee;" horiz-adv-x="724" d="M-57 1188l211 348h422l211 -348h-309l-113 153l-113 -153h-309zM102 0v1061h521v-1061h-521z" />
<glyph unicode="&#xef;" horiz-adv-x="724" d="M-43 1362q0 170 170 170t170 -170t-170 -170t-170 170zM102 0v1061h521v-1061h-521zM433 1362q0 170 170 170t170 -170t-170 -170t-170 170z" />
<glyph unicode="&#xf0;" horiz-adv-x="1312" d="M51 496q0 115 37 205t97.5 152t139 95t164.5 33q82 0 149 -23.5t107 -83.5q-14 70 -48.5 125.5t-86.5 98.5l-264 -105l-53 150l131 51q-72 20 -148 31l27 270q281 -35 502 -149l266 104l53 -150l-155 -61q135 -111 214 -259.5t79 -334.5q0 -158 -41 -281.5t-120 -209.5 t-196 -132.5t-268 -46.5q-123 0 -229.5 34t-186.5 99.5t-125 163t-45 224.5zM555 496q0 -123 23.5 -174.5t60.5 -51.5q27 0 48.5 14.5t36.5 53.5t24.5 108.5t9.5 180.5v57q-27 27 -78 27q-27 0 -49.5 -8.5t-40 -32t-26.5 -65.5t-9 -109z" />
<glyph unicode="&#xf1;" horiz-adv-x="1402" d="M92 0v1061h520v-88q45 49 118 80.5t175 31.5q217 0 316.5 -134t99.5 -400v-551h-520v530q0 150 -29 205.5t-88 55.5q-20 0 -40.5 -7.5t-31.5 -19.5v-764h-520zM328 1198q0 86 18.5 147.5t51 101.5t76 59.5t90.5 19.5q63 0 141 -33q66 -29 96 -29q23 0 35 9.5t12 50.5h244 q0 -86 -19.5 -147.5t-51 -101.5t-74.5 -59.5t-91 -19.5q-63 0 -141 33q-66 29 -96 29q-23 0 -35 -9.5t-12 -50.5h-244z" />
<glyph unicode="&#xf2;" horiz-adv-x="1359" d="M51 530q0 127 45 229.5t127 175.5t198 111.5t259 38.5t259 -38.5t198 -111.5t127 -175.5t45 -229.5t-45 -230t-127 -175t-198 -111t-259 -39t-259 39t-198 111t-127 175t-45 230zM305 1485v51h387l234 -348h-316zM575 530q0 -147 30 -203.5t75 -56.5t74.5 56.5 t29.5 203.5t-29.5 204t-74.5 57t-75 -57t-30 -204z" />
<glyph unicode="&#xf3;" horiz-adv-x="1359" d="M51 530q0 127 45 229.5t127 175.5t198 111.5t259 38.5t259 -38.5t198 -111.5t127 -175.5t45 -229.5t-45 -230t-127 -175t-198 -111t-259 -39t-259 39t-198 111t-127 175t-45 230zM434 1188l234 348h387v-51l-305 -297h-316zM575 530q0 -147 30 -203.5t75 -56.5t74.5 56.5 t29.5 203.5t-29.5 204t-74.5 57t-75 -57t-30 -204z" />
<glyph unicode="&#xf4;" horiz-adv-x="1359" d="M51 530q0 127 45 229.5t127 175.5t198 111.5t259 38.5t259 -38.5t198 -111.5t127 -175.5t45 -229.5t-45 -230t-127 -175t-198 -111t-259 -39t-259 39t-198 111t-127 175t-45 230zM258 1188l211 348h422l211 -348h-309l-113 153l-113 -153h-309zM575 530q0 -147 30 -203.5 t75 -56.5t74.5 56.5t29.5 203.5t-29.5 204t-74.5 57t-75 -57t-30 -204z" />
<glyph unicode="&#xf5;" horiz-adv-x="1359" d="M51 530q0 127 45 229.5t127 175.5t198 111.5t259 38.5t259 -38.5t198 -111.5t127 -175.5t45 -229.5t-45 -230t-127 -175t-198 -111t-259 -39t-259 39t-198 111t-127 175t-45 230zM299 1198q0 86 18.5 147.5t51 101.5t76 59.5t90.5 19.5q63 0 141 -33q66 -29 96 -29 q23 0 35 9.5t12 50.5h244q0 -86 -19.5 -147.5t-51 -101.5t-74.5 -59.5t-91 -19.5q-63 0 -141 33q-66 29 -96 29q-23 0 -35 -9.5t-12 -50.5h-244zM575 530q0 -147 30 -203.5t75 -56.5t74.5 56.5t29.5 203.5t-29.5 204t-74.5 57t-75 -57t-30 -204z" />
<glyph unicode="&#xf6;" horiz-adv-x="1359" d="M51 530q0 127 45 229.5t127 175.5t198 111.5t259 38.5t259 -38.5t198 -111.5t127 -175.5t45 -229.5t-45 -230t-127 -175t-198 -111t-259 -39t-259 39t-198 111t-127 175t-45 230zM272 1362q0 170 170 170t170 -170t-170 -170t-170 170zM575 530q0 -147 30 -203.5 t75 -56.5t74.5 56.5t29.5 203.5t-29.5 204t-74.5 57t-75 -57t-30 -204zM748 1362q0 170 170 170t170 -170t-170 -170t-170 170z" />
<glyph unicode="&#xf7;" horiz-adv-x="1220" d="M82 526v308h1057v-308h-1057zM389 193q0 223 221 223t221 -223t-221 -224q-221 1 -221 224zM389 1167q0 223 221 224q221 0 221 -224q0 -223 -221 -223t-221 223z" />
<glyph unicode="&#xf8;" horiz-adv-x="1359" d="M51 530q0 127 45 229.5t127 175.5t198 111.5t259 38.5q113 0 209 -24l131 225h188l-166 -285q127 -70 197 -190.5t70 -280.5q0 -127 -45 -230t-127 -175t-198 -111t-259 -39q-59 0 -112.5 7.5t-102.5 17.5l-129 -225h-189l166 286q-125 70 -193.5 189.5t-68.5 279.5z M535 487q0 -20 2 -36l200 346q-27 14 -57 14q-31 0 -56.5 -13.5t-46 -46t-31.5 -86t-11 -135.5v-43zM618 266q25 -16 62 -16q31 0 56.5 13t46 45t31.5 86.5t11 135.5q0 23 -1 45.5t-3 40.5z" />
<glyph unicode="&#xf9;" horiz-adv-x="1402" d="M82 510v551h520v-531q0 -76 7 -126t21.5 -79.5t36 -42t52.5 -12.5q20 0 40.5 7.5t31.5 19.5v764h520v-1061h-520v88q-45 -49 -118 -81t-175 -32q-217 0 -316.5 134.5t-99.5 400.5zM305 1485v51h387l234 -348h-316z" />
<glyph unicode="&#xfa;" horiz-adv-x="1402" d="M82 510v551h520v-531q0 -76 7 -126t21.5 -79.5t36 -42t52.5 -12.5q20 0 40.5 7.5t31.5 19.5v764h520v-1061h-520v88q-45 -49 -118 -81t-175 -32q-217 0 -316.5 134.5t-99.5 400.5zM467 1188l234 348h387v-51l-305 -297h-316z" />
<glyph unicode="&#xfb;" horiz-adv-x="1402" d="M82 510v551h520v-531q0 -76 7 -126t21.5 -79.5t36 -42t52.5 -12.5q20 0 40.5 7.5t31.5 19.5v764h520v-1061h-520v88q-45 -49 -118 -81t-175 -32q-217 0 -316.5 134.5t-99.5 400.5zM274 1188l211 348h422l211 -348h-309l-113 153l-113 -153h-309z" />
<glyph unicode="&#xfc;" horiz-adv-x="1402" d="M82 510v551h520v-531q0 -76 7 -126t21.5 -79.5t36 -42t52.5 -12.5q20 0 40.5 7.5t31.5 19.5v764h520v-1061h-520v88q-45 -49 -118 -81t-175 -32q-217 0 -316.5 134.5t-99.5 400.5zM288 1362q0 170 170 170t170 -170t-170 -170t-170 170zM764 1362q0 170 170 170t170 -170 t-170 -170t-170 170z" />
<glyph unicode="&#xfd;" horiz-adv-x="1347" d="M10 1061h522l152 -602l131 602h522l-479 -1456h-526l114 395zM438 1188l234 348h387v-51l-305 -297h-316z" />
<glyph unicode="&#xfe;" horiz-adv-x="1376" d="M92 -395v1890h520v-522q37 47 106.5 79.5t162.5 32.5q92 0 173 -37.5t141 -109.5t95 -174t35 -234q0 -131 -35 -233t-95 -174t-141 -110t-173 -38t-162 33t-107 80v-483h-520zM612 297q10 -10 30 -18.5t42 -8.5q31 0 52.5 12.5t35.5 42t21.5 80t7.5 125.5 q0 150 -29 205.5t-88 55.5q-23 0 -42 -8.5t-30 -18.5v-467z" />
<glyph unicode="&#xff;" horiz-adv-x="1347" d="M10 1061h522l152 -602l131 602h522l-479 -1456h-526l114 395zM266 1362q0 170 170 170t170 -170t-170 -170t-170 170zM742 1362q0 170 170 170t170 -170t-170 -170t-170 170z" />
<glyph unicode="&#x152;" horiz-adv-x="2129" d="M61 717q0 346 233.5 531.5t715.5 185.5h1024v-349h-514v-190h471v-348h-471v-199h528v-348h-1038q-481 0 -715 184.5t-234 532.5zM608 717q0 -184 105.5 -265t277.5 -81v692q-172 0 -277.5 -81t-105.5 -265z" />
<glyph unicode="&#x153;" horiz-adv-x="2031" d="M51 530q0 129 43 231.5t120 175.5t184.5 110.5t234.5 37.5q123 0 231.5 -39.5t173.5 -105.5q33 27 71 53.5t84 47t101.5 32.5t122.5 12q131 0 236.5 -40.5t177.5 -115.5t110.5 -181.5t38.5 -235.5q0 -29 -2 -62.5t-6 -58.5h-692q10 -84 84 -117.5t195 -33.5 q72 0 147.5 16t142.5 55l25 -268q-82 -35 -176 -51.5t-195 -16.5q-160 0 -277.5 37t-187.5 109q-66 -66 -173 -106t-230 -40q-127 0 -234.5 38t-185.5 111t-121 175t-43 231zM575 530q0 -147 30 -203.5t75 -56.5t74.5 56.5t29.5 203.5t-29.5 204t-74.5 57t-75 -57t-30 -204z M1288 659h230q0 150 -115 150t-115 -150z" />
<glyph unicode="&#x178;" horiz-adv-x="1634" d="M20 1434h582l215 -529l215 529h582l-522 -859v-575h-549v575zM409 1718q0 170 170 170t170 -170t-170 -170t-170 170zM885 1718q0 170 170 170t170 -170t-170 -170t-170 170z" />
<glyph unicode="&#x2c6;" d="M90 1147l211 348h422l211 -348h-309l-113 153l-113 -153h-309z" />
<glyph unicode="&#x2dc;" d="M129 1157q0 86 18.5 147.5t51 101.5t76 59.5t90.5 19.5q63 0 141 -33q66 -29 96 -29q23 0 35 9.5t12 50.5h244q0 -86 -19.5 -147.5t-51 -101.5t-74.5 -59.5t-91 -19.5q-63 0 -141 33q-66 29 -96 29q-23 0 -35 -9.5t-12 -50.5h-244z" />
<glyph unicode="&#x2000;" horiz-adv-x="986" />
<glyph unicode="&#x2001;" horiz-adv-x="1972" />
<glyph unicode="&#x2002;" horiz-adv-x="986" />
<glyph unicode="&#x2003;" horiz-adv-x="1972" />
<glyph unicode="&#x2004;" horiz-adv-x="657" />
<glyph unicode="&#x2005;" horiz-adv-x="493" />
<glyph unicode="&#x2006;" horiz-adv-x="328" />
<glyph unicode="&#x2007;" horiz-adv-x="328" />
<glyph unicode="&#x2008;" horiz-adv-x="246" />
<glyph unicode="&#x2009;" horiz-adv-x="394" />
<glyph unicode="&#x200a;" horiz-adv-x="109" />
<glyph unicode="&#x2010;" horiz-adv-x="790" d="M82 516v328h627v-328h-627z" />
<glyph unicode="&#x2011;" horiz-adv-x="790" d="M82 516v328h627v-328h-627z" />
<glyph unicode="&#x2012;" horiz-adv-x="790" d="M82 516v328h627v-328h-627z" />
<glyph unicode="&#x2013;" d="M0 526v308h1024v-308h-1024z" />
<glyph unicode="&#x2014;" horiz-adv-x="2048" d="M0 526v308h2048v-308h-2048z" />
<glyph unicode="&#x2018;" horiz-adv-x="696" d="M127 1014q0 211 83 348t241 219l96 -145q-49 -37 -86 -92.5t-47 -112.5q155 -27 155 -217q0 -223 -221 -223t-221 223z" />
<glyph unicode="&#x2019;" horiz-adv-x="696" d="M127 1358q0 223 221 223t221 -223q0 -211 -83 -348.5t-240 -218.5l-96 145q49 37 85.5 92t47.5 113q-156 27 -156 217z" />
<glyph unicode="&#x201a;" horiz-adv-x="696" d="M127 199q0 223 221 223t221 -223q0 -211 -83 -348.5t-240 -219.5l-96 146q49 37 85.5 92t47.5 113q-156 27 -156 217z" />
<glyph unicode="&#x201c;" horiz-adv-x="1234" d="M127 1014q0 211 83 348t241 219l96 -145q-49 -37 -86 -92.5t-47 -112.5q155 -27 155 -217q0 -223 -221 -223t-221 223zM666 1014q0 211 82.5 348t240.5 219l96 -145q-49 -37 -85.5 -92.5t-47.5 -112.5q156 -27 156 -217q0 -223 -221 -223t-221 223z" />
<glyph unicode="&#x201d;" horiz-adv-x="1234" d="M127 1358q0 223 221 223t221 -223q0 -211 -83 -348.5t-240 -218.5l-96 145q49 37 85.5 92t47.5 113q-156 27 -156 217zM666 1358q0 223 221 223t221 -223q0 -211 -83 -348.5t-241 -218.5l-96 145q49 37 86 92t47 113q-155 27 -155 217z" />
<glyph unicode="&#x201e;" horiz-adv-x="1234" d="M127 199q0 223 221 223t221 -223q0 -211 -83 -348.5t-240 -219.5l-96 146q49 37 85.5 92t47.5 113q-156 27 -156 217zM666 199q0 223 221 223t221 -223q0 -211 -83 -348.5t-241 -219.5l-96 146q49 37 86 92t47 113q-155 27 -155 217z" />
<glyph unicode="&#x2022;" horiz-adv-x="1032" d="M205 680q0 152 78.5 235.5t232.5 83.5t232.5 -84t78.5 -235q0 -152 -78.5 -236t-232.5 -84t-232.5 84t-78.5 236z" />
<glyph unicode="&#x2026;" horiz-adv-x="2088" d="M127 199q0 223 221 223t221 -223t-221 -224q-221 1 -221 224zM823 199q0 223 221 223t221 -223t-221 -224q-221 1 -221 224zM1520 199q0 223 221 223t221 -223t-221 -224q-221 1 -221 224z" />
<glyph unicode="&#x202f;" horiz-adv-x="394" />
<glyph unicode="&#x2039;" horiz-adv-x="638" d="M102 489v299l455 420v-377l-215 -192l215 -193v-376z" />
<glyph unicode="&#x203a;" horiz-adv-x="638" d="M82 70v376l215 193l-215 192v377l455 -420v-299z" />
<glyph unicode="&#x205f;" horiz-adv-x="493" />
<glyph unicode="&#x20ac;" horiz-adv-x="1433" d="M41 520v139h104q-2 23 -2 56t2 59h-104v139h121q55 262 254.5 403.5t517.5 141.5q119 0 232.5 -23.5t205.5 -66.5l-31 -377q-66 53 -133 74.5t-159 21.5q-238 0 -318 -174h473l-39 -139h-467q-10 -57 0 -115h432l-43 -139h-352q84 -174 320 -174q92 0 161.5 19.5 t135.5 72.5l30 -375q-90 -47 -206.5 -67.5t-235.5 -20.5q-317 0 -518 141.5t-258 403.5h-123z" />
<glyph unicode="&#x2122;" horiz-adv-x="1490" d="M10 1249v185h578v-185h-160v-493h-258v493h-160zM635 756v678h262l137 -308l133 308h263v-678h-222v385l-90 -189h-176l-82 189v-385h-225z" />
<glyph unicode="&#xe000;" horiz-adv-x="1064" d="M0 0v1065h1065v-1065h-1065z" />
</font>
</defs>
</svg>
